<svg width="16" height="16" viewBox="0 0 16 16" fill="none" xmlns="http://www.w3.org/2000/svg">
<g clip-path="url(#clip0_30_96)">
<path fill-rule="evenodd" clip-rule="evenodd" d="M10.2507 8.03308C8.9159 8.28591 7.88755 9.3868 7.55152 10.9226C7.46676 11.31 7.47581 12.1329 7.56906 12.5156C7.9034 13.8879 8.91986 14.85 10.3642 15.1613C10.6743 15.2281 11.2267 15.2474 11.575 15.2036C12.7061 15.0612 13.6899 14.4151 14.2687 13.4345C14.4153 13.186 14.6153 12.7066 14.5897 12.665C14.5548 12.6087 14.5175 12.6398 14.3252 12.8854C14.218 13.0224 14.0029 13.2572 13.8473 13.4072C12.3927 14.8087 10.2701 14.7892 8.83859 13.3614C7.85027 12.3756 7.6257 10.9236 8.28816 9.80229C8.75626 9.00996 9.51246 8.56054 10.3766 8.56111C10.9126 8.56148 11.323 8.68833 11.7556 8.98738C12.3308 9.38502 12.6257 9.90152 12.6239 10.5081C12.6214 11.2906 12.1241 11.9353 11.4229 12.065C10.9057 12.1606 10.273 11.8209 10.1221 11.3668C10.0499 11.1493 10.0693 10.7952 10.1632 10.6137C10.4186 10.1208 10.9587 9.96884 11.3937 10.2676C11.702 10.4795 11.8037 10.8536 11.6492 11.2081C11.5571 11.4196 11.5929 11.4647 11.7394 11.3216C11.9165 11.1487 11.9932 10.9485 11.9935 10.6589C11.9936 10.4527 11.9806 10.3907 11.9053 10.2366C11.6663 9.74813 11.0802 9.45772 10.5227 9.55145C9.9294 9.6512 9.4484 10.1196 9.27696 10.7647C9.219 10.9828 9.2202 11.3892 9.27953 11.6181C9.4427 12.2479 9.9588 12.7672 10.651 12.9982C10.9 13.0813 11.3773 13.1109 11.6637 13.061C12.6079 12.8966 13.3559 12.0989 13.5368 11.0634C13.6264 10.5504 13.5583 10.0441 13.335 9.56184C13.1346 9.12936 12.8265 8.76151 12.4444 8.49862C12.2337 8.35363 11.7707 8.14442 11.507 8.07499C11.1917 7.99203 10.5759 7.97147 10.2507 8.03308Z" fill="#F2A7C1"/>
<path fill-rule="evenodd" clip-rule="evenodd" d="M7.25491 0.291049C3.16577 0.713781 0.134794 4.16148 0.276499 8.22889C0.30548 9.06122 0.465541 9.89965 0.736877 10.6405C0.902884 11.0939 1.29271 11.8612 1.55916 12.2591C3.06198 14.5035 5.59641 15.805 8.26624 15.7034C8.7069 15.6866 9.14799 15.6413 8.99387 15.6286C8.97069 15.6267 8.89597 15.5804 8.82783 15.5258C8.7597 15.4711 8.56812 15.3365 8.40208 15.2266C7.3974 14.5616 6.76504 13.6323 6.50992 12.4459C6.41549 12.0068 6.41525 11.2143 6.5094 10.7767C6.59949 10.3579 6.70551 10.049 6.8813 9.69304C7.38288 8.67743 8.30171 7.88033 9.38303 7.52266C9.8979 7.35233 10.1738 7.30989 10.7568 7.31131C11.4953 7.31309 12.0193 7.43384 12.6587 7.74962C13.8367 8.33144 14.7134 9.47043 14.9444 10.7195C14.9782 10.9021 15.0154 11.0621 15.0271 11.0751C15.0657 11.1177 15.4431 10.099 15.5246 9.73244C15.6738 9.06116 15.7035 8.77597 15.7048 8.00248C15.7064 7.08625 15.6265 6.51792 15.3867 5.7386C15.0263 4.5674 14.4151 3.53087 13.5643 2.6483C12.3399 1.37805 10.8449 0.606612 9.08133 0.335064C8.7021 0.276649 7.64124 0.25111 7.25491 0.291049ZM7.48963 0.848936C6.74835 1.0486 6.01824 1.77054 5.46053 2.85531C5.3254 3.11813 5.06623 3.72975 5.06623 3.78581C5.06623 3.81192 5.60785 3.91906 6.07756 3.98587C6.4176 4.03423 6.91662 4.08054 7.39831 4.10847L7.72284 4.12728V2.46488C7.72284 1.15402 7.71487 0.802898 7.6851 0.804468C7.66436 0.805555 7.57639 0.82557 7.48963 0.848936ZM8.23605 2.46047C8.23605 3.77069 8.24405 4.12317 8.27378 4.12296C8.48704 4.12145 9.38877 4.05268 9.6851 4.01537C10.0203 3.97313 10.7873 3.83952 10.8837 3.80655C10.9508 3.78361 10.5509 2.88468 10.2691 2.42545C9.70992 1.51384 9.03427 0.952091 8.33416 0.816664L8.23605 0.797676V2.46047ZM5.73039 1.1466C5.52284 1.21796 5.27864 1.3066 5.18771 1.34355C4.6835 1.5485 3.89214 2.02216 3.46448 2.375C3.17648 2.61262 2.80208 2.95602 2.80208 2.98258C2.80208 3.06143 4.04571 3.56731 4.45187 3.65365L4.54693 3.67384L4.62747 3.43197C4.82355 2.8432 5.327 1.97078 5.75007 1.48667C6.12885 1.05322 6.161 1.0138 6.13428 1.01531C6.1197 1.01615 5.93793 1.07523 5.73039 1.1466ZM9.94602 1.17229C10.518 1.76411 11.0571 2.62762 11.3296 3.38853C11.3762 3.51867 11.4233 3.63529 11.4342 3.6477C11.4797 3.6995 12.3662 3.39167 12.9304 3.12818L13.2021 3.0013L12.9304 2.7434C12.3934 2.23366 11.6439 1.72984 10.9787 1.43146C10.6915 1.30264 9.88625 1.0138 9.81425 1.0138C9.80248 1.0138 9.86177 1.0851 9.94602 1.17229ZM2.22461 3.66285C1.38989 4.76891 0.894975 6.08332 0.792363 7.46663L0.771654 7.74587H2.31113H3.85057L3.87203 7.30059C3.91593 6.39022 4.0589 5.41908 4.27019 4.59641C4.32915 4.36685 4.37274 4.17561 4.3671 4.17141C4.36142 4.16722 4.24812 4.13226 4.11529 4.09371C3.72332 3.97992 3.27879 3.80619 2.8413 3.59583C2.61585 3.4874 2.42971 3.3987 2.42765 3.3987C2.4256 3.3987 2.33422 3.51759 2.22461 3.66285ZM13.4134 3.46557C12.999 3.68592 12.5512 3.8621 11.6264 4.16848C11.5998 4.1773 11.6059 4.23442 11.6494 4.38578C11.8159 4.96483 11.9848 5.91411 12.0503 6.63867L12.0855 7.02789L12.357 7.12546C12.6779 7.24079 13.062 7.43034 13.3464 7.61383L13.5511 7.74587H14.3603C14.8053 7.74587 15.1755 7.73968 15.1831 7.73217C15.2018 7.71345 15.1584 7.17573 15.1172 6.91568C14.9242 5.69742 14.4561 4.59354 13.7254 3.63366C13.627 3.50445 13.5438 3.39931 13.5403 3.40003C13.5369 3.40079 13.4798 3.43028 13.4134 3.46557ZM4.85772 4.41757C4.58657 5.45129 4.43122 6.45262 4.39164 7.42134L4.37839 7.74587H6.05063H7.72284V6.19556V4.64525L7.33793 4.62485C6.58491 4.58494 5.81253 4.49108 5.20631 4.36586C5.0426 4.33205 4.90388 4.30436 4.89802 4.30436C4.8922 4.30436 4.87405 4.35532 4.85772 4.41757ZM10.8172 4.35076C10.2474 4.47934 9.40242 4.58581 8.65114 4.62367L8.23605 4.64459V6.09208C8.23605 6.88821 8.24622 7.53491 8.25869 7.52921C8.27116 7.5235 8.43076 7.44254 8.6134 7.34931C8.98877 7.15771 9.49244 6.98533 9.88661 6.91357C10.2535 6.84676 10.9367 6.82427 11.2659 6.86811C11.4131 6.88773 11.5384 6.8989 11.5443 6.89298C11.5502 6.88706 11.5345 6.69956 11.5093 6.47632C11.4104 5.59964 11.1352 4.32534 11.0425 4.31487C11.0182 4.31215 10.9168 4.3283 10.8172 4.35076ZM0.791941 8.52323C0.894341 9.90029 1.432 11.3119 2.26213 12.3832L2.42847 12.5978L2.60773 12.5063C3.09081 12.2595 4.14328 11.8515 4.2966 11.8515C4.37522 11.8515 4.37328 11.7933 4.28335 11.4531C4.07725 10.6732 3.9424 9.79656 3.88377 8.85531L3.84664 8.25908H2.30947H0.772288L0.791941 8.52323ZM4.39393 8.5987C4.4214 9.41437 4.58771 10.5498 4.79327 11.325L4.88981 11.6891L5.36293 11.6016C5.62313 11.5535 5.86361 11.5091 5.8973 11.5028C5.95197 11.4927 5.96254 11.4542 5.99541 11.1443C6.06352 10.503 6.21821 9.98971 6.52033 9.40278C6.69748 9.05857 7.0176 8.59599 7.23342 8.37229L7.34264 8.25908H5.86255H4.38246L4.39393 8.5987ZM14.302 8.43266C14.532 8.69443 14.7103 8.94204 14.8618 9.21002C14.9369 9.34285 15.0032 9.46512 15.0093 9.48172C15.0153 9.49832 15.0282 9.50463 15.038 9.49576C15.0592 9.4765 15.1717 8.67958 15.188 8.43266L15.1995 8.25908H14.6745H14.1495L14.302 8.43266ZM5.44728 12.1093C5.25005 12.1489 5.08187 12.1881 5.0736 12.1964C5.02071 12.2493 5.56571 13.3729 5.85766 13.8129C6.1062 14.1874 6.52181 14.6196 6.8295 14.8234C7.05923 14.9756 7.40287 15.1421 7.48716 15.1421C7.50796 15.1421 7.43602 15.0504 7.32731 14.9383C6.94663 14.546 6.72063 14.2245 6.46243 13.7081C6.22623 13.2358 6.00208 12.4622 6.00208 12.1193C6.00208 12.0412 5.99242 12.0329 5.90397 12.035C5.85002 12.0363 5.6445 12.0698 5.44728 12.1093ZM4.22095 12.4075C3.74448 12.5522 2.80208 12.9435 2.80208 12.9965C2.80208 13.0251 3.18367 13.3914 3.40586 13.5761C3.85896 13.9528 4.43873 14.3112 5.01745 14.5725C5.35463 14.7247 6.0192 14.961 6.11022 14.961C6.14053 14.961 6.0762 14.8724 5.94038 14.727C5.39019 14.1381 4.9088 13.3522 4.64275 12.6085C4.57307 12.4136 4.53069 12.3352 4.49606 12.3366C4.46928 12.3377 4.34548 12.3696 4.22095 12.4075Z" fill="#3A77B4"/>
</g>
<defs>
<clipPath id="clip0_30_96">
<rect width="16" height="16" fill="white"/>
</clipPath>
</defs>
</svg>
