<svg width="530" height="530" viewBox="0 0 530 530" fill="none" xmlns="http://www.w3.org/2000/svg">
<path fill-rule="evenodd" clip-rule="evenodd" d="M339.558 266.097C295.343 274.472 261.279 310.939 250.148 361.813C247.34 374.646 247.64 401.904 250.729 414.581C261.804 460.039 295.474 491.908 343.318 502.219C353.589 504.432 371.889 505.071 383.424 503.619C420.893 498.903 453.483 477.5 472.655 445.018C477.512 436.788 484.137 420.906 483.286 419.529C482.133 417.663 480.895 418.695 474.527 426.831C470.975 431.369 463.851 439.146 458.694 444.115C410.511 490.538 340.201 489.895 292.782 442.598C260.044 409.944 252.605 361.844 274.549 324.702C290.055 298.456 315.104 283.569 343.728 283.588C361.483 283.6 375.078 287.802 389.408 297.708C408.462 310.88 418.23 327.989 418.169 348.081C418.089 374.002 401.614 395.359 378.386 399.653C361.255 402.82 340.297 391.57 335.299 376.525C332.907 369.323 333.548 357.591 336.661 351.581C345.121 335.251 363.012 330.219 377.42 340.116C387.634 347.133 391.001 359.525 385.885 371.27C382.832 378.277 384.017 379.769 388.871 375.029C394.738 369.301 397.279 362.67 397.287 353.076C397.292 346.248 396.862 344.192 394.366 339.089C386.449 322.908 367.037 313.288 348.567 316.393C328.915 319.697 312.982 335.214 307.303 356.581C305.383 363.806 305.423 377.269 307.388 384.85C312.793 405.712 329.889 422.914 352.818 430.565C361.067 433.318 376.876 434.299 386.363 432.647C417.641 427.2 442.417 400.777 448.409 366.477C451.378 349.482 449.124 332.711 441.725 316.737C435.088 302.411 424.883 290.226 412.226 281.518C405.246 276.715 389.908 269.785 381.172 267.485C370.728 264.737 350.331 264.056 339.558 266.097Z" fill="black"/>
<path fill-rule="evenodd" clip-rule="evenodd" d="M240.318 9.64C104.865 23.643 4.46403 137.848 9.15803 272.581C10.118 300.152 15.42 327.925 24.408 352.466C29.907 367.483 42.82 392.901 51.646 406.081C101.427 480.428 185.38 523.541 273.818 520.174C288.415 519.619 303.026 518.116 297.921 517.696C297.153 517.633 294.678 516.1 292.421 514.29C290.164 512.479 283.818 508.02 278.318 504.379C245.038 482.351 224.091 451.569 215.64 412.269C212.512 397.724 212.504 371.474 215.623 356.977C218.607 343.104 222.119 332.872 227.942 321.081C244.557 287.439 274.993 261.035 310.812 249.187C327.867 243.545 337.006 242.139 356.318 242.186C380.78 242.245 398.138 246.245 419.318 256.705C458.341 275.978 487.379 313.707 495.032 355.081C496.151 361.131 497.384 366.432 497.773 366.861C499.05 368.273 511.553 334.529 514.252 322.386C519.194 300.15 520.179 290.703 520.222 265.081C520.273 234.731 517.628 215.905 509.684 190.09C497.746 151.294 477.499 116.959 449.318 87.724C408.759 45.647 359.235 20.093 300.818 11.098C288.256 9.163 253.115 8.317 240.318 9.64ZM248.093 28.12C223.538 34.734 199.353 58.648 180.879 94.581C176.403 103.287 167.818 123.547 167.818 125.404C167.818 126.269 185.759 129.818 201.318 132.031C212.582 133.633 229.112 135.167 245.068 136.092L255.818 136.715V81.648C255.818 38.226 255.554 26.595 254.568 26.647C253.881 26.683 250.967 27.346 248.093 28.12ZM272.818 81.502C272.818 124.903 273.083 136.579 274.068 136.572C281.132 136.522 311.002 134.244 320.818 133.008C331.921 131.609 357.328 127.183 360.521 126.091C362.745 125.331 349.496 95.554 340.164 80.342C321.64 50.145 299.259 31.537 276.068 27.051L272.818 26.422V81.502ZM189.818 37.98C182.943 40.344 174.854 43.28 171.842 44.504C155.14 51.293 128.926 66.983 114.76 78.671C105.22 86.542 92.818 97.917 92.818 98.797C92.818 101.409 134.013 118.166 147.467 121.026L150.616 121.695L153.284 113.683C159.779 94.18 176.456 65.281 190.47 49.245C203.017 34.887 204.082 33.581 203.197 33.631C202.714 33.659 196.693 35.616 189.818 37.98ZM329.461 38.831C348.408 58.435 366.267 87.039 375.293 112.244C376.837 116.555 378.396 120.418 378.758 120.829C380.264 122.545 409.63 112.348 428.318 103.62L437.318 99.417L428.318 90.874C410.53 73.989 385.702 57.3 363.669 47.416C354.156 43.149 327.481 33.581 325.096 33.581C324.706 33.581 326.67 35.943 329.461 38.831ZM73.689 121.331C46.039 157.969 29.645 201.509 26.246 247.331L25.56 256.581H76.555H127.549L128.26 241.831C129.714 211.675 134.45 179.506 141.449 152.255C143.402 144.651 144.846 138.316 144.659 138.177C144.471 138.038 140.718 136.88 136.318 135.603C123.334 131.834 108.609 126.079 94.117 119.111C86.649 115.519 80.483 112.581 80.415 112.581C80.347 112.581 77.32 116.519 73.689 121.331ZM444.318 114.796C430.591 122.095 415.756 127.931 385.124 138.08C384.243 138.372 384.443 140.264 385.885 145.278C391.401 164.459 396.997 195.904 399.166 219.905L400.331 232.798L409.324 236.03C419.955 239.85 432.677 246.129 442.099 252.207L448.88 256.581H475.683C490.424 256.581 502.689 256.376 502.939 256.127C503.558 255.507 502.121 237.695 500.756 229.081C494.364 188.726 478.857 152.16 454.653 120.364C451.394 116.084 448.636 112.601 448.523 112.625C448.41 112.65 446.518 113.627 444.318 114.796ZM160.911 146.331C151.929 180.573 146.783 213.742 145.472 245.831L145.033 256.581H200.426H255.818V205.227V153.873L243.068 153.197C218.124 151.875 192.539 148.766 172.458 144.618C167.035 143.498 162.44 142.581 162.246 142.581C162.053 142.581 161.452 144.269 160.911 146.331ZM358.318 144.118C339.445 148.377 311.454 151.904 286.568 153.158L272.818 153.851V201.799C272.818 228.171 273.155 249.593 273.568 249.404C273.981 249.215 279.268 246.533 285.318 243.445C297.752 237.098 314.436 231.388 327.493 229.011C339.646 226.798 362.277 226.053 373.182 227.505C378.058 228.155 382.207 228.525 382.403 228.329C382.599 228.133 382.078 221.922 381.244 214.527C377.97 185.487 368.854 143.276 365.782 142.929C364.977 142.839 361.618 143.374 358.318 144.118ZM26.232 282.331C29.624 327.946 47.434 374.706 74.932 410.191L80.442 417.301L86.38 414.269C102.382 406.096 137.245 392.581 142.324 392.581C144.928 392.581 144.864 390.653 141.885 379.383C135.058 353.548 130.591 324.51 128.649 293.331L127.419 273.581H76.5H25.581L26.232 282.331ZM145.548 284.831C146.458 311.85 151.967 349.461 158.776 375.14L161.974 387.199L177.646 384.302C186.265 382.709 194.231 381.237 195.347 381.03C197.158 380.694 197.508 379.418 198.597 369.155C200.853 347.91 205.977 330.908 215.985 311.466C221.853 300.064 232.457 284.741 239.606 277.331L243.224 273.581H194.196H145.168L145.548 284.831ZM473.752 279.331C481.371 288.002 487.278 296.204 492.296 305.081C494.783 309.481 496.981 313.531 497.181 314.081C497.381 314.631 497.809 314.84 498.132 314.546C498.835 313.908 502.56 287.51 503.102 279.331L503.483 273.581H486.091H468.7L473.752 279.331ZM180.44 401.121C173.907 402.432 168.336 403.729 168.062 404.004C166.31 405.756 184.363 442.975 194.034 457.551C202.267 469.958 216.034 484.273 226.226 491.024C233.836 496.065 245.219 501.581 248.011 501.581C248.7 501.581 246.317 498.543 242.716 494.831C230.106 481.834 222.62 471.186 214.067 454.081C206.243 438.435 198.818 412.808 198.818 401.45C198.818 398.864 198.498 398.589 195.568 398.659C193.781 398.702 186.973 399.81 180.44 401.121ZM139.818 410.996C124.035 415.792 92.818 428.752 92.818 430.509C92.818 431.455 105.458 443.588 112.818 449.707C127.827 462.185 147.032 474.059 166.202 482.713C177.371 487.755 199.385 495.581 202.4 495.581C203.404 495.581 201.273 492.646 196.774 487.831C178.549 468.325 162.603 442.292 153.79 417.656C151.482 411.201 150.078 408.601 148.931 408.649C148.044 408.686 143.943 409.743 139.818 410.996Z" fill="black"/>
</svg>
